Coordinates
nRows=45
nColumns=3

# SIMM Motion File Header:
name Coordinates
datacolumns 3
datarows 45
otherdata 1
range 0.51000000000000001000 0.55400000000000005000
endheader
time	r_shoulder_elev	r_elbow_flex
      0.51000000000000001000	      0.01745177001793514800	     42.92970803826883500000
      0.51100000000000001000	      0.01717802858818959900	     43.06914067842385000000
      0.51200000000000001000	      0.01620670001448747800	     43.21179886247274700000
      0.51300000000000001000	      0.01481681915441119400	     43.35639237285798200000
      0.51400000000000001000	      0.01318419656336127800	     43.50200455560983700000
      0.51500000000000001000	      0.00985238185549833050	     43.65474744492807000000
      0.51600000000000001000	      0.00652056714763538360	     43.80749033424630300000
      0.51700000000000002000	      0.00201736544913947880	     43.96487255035745500000
      0.51800000000000002000	     -0.00318866844373491030	     44.12503836254434500000
      0.51900000000000002000	     -0.00845395903560831890	     44.28542143082749800000
      0.52000000000000002000	     -0.01413404652047218200	     44.44732529178448000000
      0.52100000000000002000	     -0.01981413400533604100	     44.60922915274147000000
      0.52200000000000002000	     -0.02399491819194753100	     44.76487577780600400000
      0.52300000000000002000	     -0.02796151619309409800	     44.91962851202875800000
      0.52400000000000002000	     -0.03058878615412265500	     45.06853626231628600000
      0.52500000000000002000	     -0.03098384271495572800	     45.20770237271177200000
      0.52600000000000002000	     -0.03137889927578880300	     45.34686848310725800000
      0.52700000000000002000	     -0.02838126287292447700	     45.46964557206037900000
      0.52800000000000002000	     -0.02489895604667659600	     45.59008137223603500000
      0.52900000000000003000	     -0.02058401921956324500	     45.70501556452915500000
      0.53000000000000003000	     -0.01488136572434479800	     45.81078041035141300000
      0.53100000000000003000	     -0.00923730441251620700	     45.91569866372609700000
      0.53200000000000003000	     -0.00400338838441728720	     46.01469076996774300000
      0.53300000000000003000	      0.00123052764368163270	     46.11368287620938800000
      0.53400000000000003000	      0.00443239963938989440	     46.21394598436142300000
      0.53500000000000003000	      0.00641504521566426630	     46.31497169365970700000
      0.53600000000000003000	      0.00775795472055416240	     46.41711704088370300000
      0.53700000000000003000	      0.00462271172576806530	     46.52709985358768600000
      0.53800000000000003000	      0.00148746873098196810	     46.63708266629167600000
      0.53900000000000003000	     -0.00488165684331315270	     46.75375720590562200000
      0.54000000000000004000	     -0.01319111196530828800	     46.87444678166553300000
      0.54100000000000004000	     -0.02303849797651677900	     46.99834445311098100000
      0.54200000000000004000	     -0.03544910213641647200	     47.12758895069897100000
      0.54300000000000004000	     -0.04785970629631616800	     47.25683344828696900000
      0.54400000000000004000	     -0.06263151610677587800	     47.39046657144194800000
      0.54500000000000004000	     -0.07774064101017251500	     47.52472664110649700000
      0.54600000000000004000	     -0.09337980056785504000	     47.65974255291001800000
      0.54700000000000004000	     -0.10990235121601276000	     47.79601820161184400000
      0.54800000000000004000	     -0.12642490186417049000	     47.93229385031366300000
      0.54900000000000004000	     -0.14380674077453615000	     48.07001415249234100000
      0.55000000000000004000	     -0.16131133515093080000	     48.20794083373914400000
      0.55100000000000005000	     -0.17979840651794160000	     48.34854522141009200000
      0.55200000000000005000	     -0.19887496407932265000	     48.49075623293552400000
      0.55300000000000005000	     -0.21829661281851809000	     48.63403407552864600000
      0.55400000000000005000	     -0.24013389980241304000	     48.78477973559552800000
